<svg width="53" height="53" viewBox="0 0 53 53" fill="none" xmlns="http://www.w3.org/2000/svg">
<g clip-path="url(#clip0)">
<path d="M11.2212 0H13.6021V2.36016H15.7966V0H18.1774V7.14258H15.7966V4.76172H13.6228V7.14258H11.2212V0ZM21.3243 2.38086H19.2229V0H25.8169V2.38086H23.7052V7.14258H21.3243V2.38086ZM26.8624 0H29.3571L30.8892 2.51543L32.4212 0H34.9159V7.14258H32.5351V3.60234L30.8685 6.16953L29.2019 3.60234V7.14258H26.8624V0ZM36.096 0H38.4769V4.78242H41.8515V7.14258H36.096" fill="black"/>
<path d="M11.1382 48.7559L7.72217 10.4137H45.2776L41.8616 48.7352L26.4688 53" fill="#E44D26"/>
<path d="M26.5 49.7393V13.5605H41.8514L38.9219 46.2715" fill="#F16529"/>
<path d="M14.6992 18.2498H26.5V22.9494H19.8543L20.2891 27.7629H26.5V32.4522H15.9828L14.6992 18.2498ZM16.1898 34.8123H20.9102L21.2414 38.5699L26.5 39.9777V44.8844L16.8523 42.193" fill="#EBEBEB"/>
<path d="M38.2596 18.2498H26.4795V22.9494H37.8248L38.2596 18.2498ZM37.4004 27.7629H26.4795V32.4625H32.2764L31.7277 38.5699L26.4795 39.9777V44.8637L36.1065 42.193" fill="white"/>
</g>
<defs>
<clipPath id="clip0">
<rect width="53" height="53" fill="white"/>
</clipPath>
</defs>
</svg>
