<svg width="53" height="53" viewBox="0 0 53 53" fill="none" xmlns="http://www.w3.org/2000/svg">
<path d="M0 0H53V53H0V0Z" fill="#F7DF1E"/>
<path d="M13.9358 44.2906L17.9915 41.8361C18.7741 43.2234 19.4858 44.3972 21.1932 44.3972C22.8298 44.3972 23.8619 43.7571 23.8619 41.2669V24.3322H28.8424V41.3373C28.8424 46.4959 25.8185 48.8441 21.4067 48.8441C17.4224 48.8441 15.1096 46.7806 13.9355 44.2902L13.9358 44.2906ZM31.5477 43.7569L35.603 41.4089C36.6707 43.1524 38.0582 44.4331 40.5128 44.4331C42.5767 44.4331 43.8925 43.4012 43.8925 41.9781C43.8925 40.2705 42.5406 39.6655 40.2637 38.6697L39.0188 38.1356C35.4254 36.6062 33.0418 34.685 33.0418 30.6292C33.0418 26.8936 35.8879 24.0473 40.3351 24.0473C43.5015 24.0473 45.7784 25.1504 47.4148 28.032L43.5367 30.5226C42.6827 28.9929 41.7581 28.3881 40.3349 28.3881C38.8762 28.3881 37.9512 29.3131 37.9512 30.5226C37.9512 32.0168 38.8762 32.6219 41.0107 33.5469L42.2558 34.0805C46.4895 35.8951 48.8731 37.7449 48.8731 41.9071C48.8731 46.3901 45.3511 48.8447 40.6194 48.8447C35.9945 48.8447 33.006 46.639 31.5475 43.7571" fill="black"/>
</svg>
