<svg width="53" height="53" viewBox="0 0 53 53" fill="none" xmlns="http://www.w3.org/2000/svg">
<path d="M26.2734 0.0149536C12.8524 0.0149536 13.6904 5.85846 13.6904 5.85846L13.7053 11.9125H26.5127V13.7301H8.61836C8.61836 13.7301 0.0302734 12.7522 0.0302734 26.3483C0.0302734 39.9447 7.52617 39.4625 7.52617 39.4625H11.9997V33.1532C11.9997 33.1532 11.7585 25.6273 19.3759 25.6273H32.0786C32.0786 25.6273 39.2153 25.743 39.2153 18.7021V7.06042C39.2153 7.06042 40.2992 0.0149536 26.2734 0.0149536ZM19.2114 4.08618C19.514 4.08591 19.8137 4.14556 20.0934 4.26172C20.3731 4.37787 20.6272 4.54826 20.8412 4.76312C21.0552 4.97799 21.2249 5.23311 21.3406 5.5139C21.4563 5.79468 21.5157 6.09561 21.5154 6.39948C21.5157 6.70334 21.4563 7.00428 21.3406 7.28506C21.2249 7.56585 21.0552 7.82097 20.8412 8.03583C20.6272 8.2507 20.3731 8.42108 20.0934 8.53724C19.8137 8.6534 19.514 8.71304 19.2114 8.71277C18.9087 8.71304 18.609 8.6534 18.3293 8.53724C18.0497 8.42108 17.7956 8.2507 17.5816 8.03583C17.3675 7.82097 17.1978 7.56585 17.0822 7.28506C16.9665 7.00428 16.907 6.70334 16.9073 6.39948C16.907 6.09561 16.9665 5.79468 17.0822 5.5139C17.1978 5.23311 17.3675 4.97799 17.5816 4.76312C17.7956 4.54826 18.0497 4.37787 18.3293 4.26172C18.609 4.14556 18.9087 4.08591 19.2114 4.08618V4.08618Z" fill="url(#paint0_linear)"/>
<path d="M26.654 52.8184C40.075 52.8184 39.237 46.9748 39.237 46.9748L39.2221 40.921H26.4145V39.1034H44.3088C44.3088 39.1034 52.8968 40.0813 52.8968 26.4848C52.8968 12.8886 45.401 13.3708 45.401 13.3708H40.9274V19.6798C40.9274 19.6798 41.1686 27.2058 33.5512 27.2058H20.8485C20.8485 27.2058 13.7118 27.0901 13.7118 34.1312V45.7731C13.7118 45.7731 12.6281 52.8184 26.6538 52.8184H26.654ZM33.716 48.7475C33.4133 48.7478 33.1136 48.6882 32.8339 48.572C32.5543 48.4558 32.3002 48.2855 32.0862 48.0706C31.8722 47.8557 31.7024 47.6006 31.5868 47.3198C31.4711 47.039 31.4117 46.7381 31.4119 46.4342C31.4116 46.1304 31.471 45.8294 31.5867 45.5486C31.7024 45.2678 31.8721 45.0126 32.0861 44.7977C32.3001 44.5829 32.5542 44.4125 32.8339 44.2963C33.1136 44.1801 33.4133 44.1205 33.716 44.1207C34.0186 44.1205 34.3183 44.1801 34.598 44.2963C34.8777 44.4124 35.1318 44.5828 35.3458 44.7977C35.5598 45.0125 35.7295 45.2677 35.8452 45.5484C35.9609 45.8292 36.0203 46.1302 36.02 46.434C36.0203 46.7379 35.9609 47.0388 35.8452 47.3196C35.7295 47.6004 35.5598 47.8555 35.3458 48.0704C35.1318 48.2853 34.8777 48.4556 34.598 48.5718C34.3183 48.688 34.0186 48.7476 33.716 48.7473V48.7475Z" fill="url(#paint1_linear)"/>
<defs>
<linearGradient id="paint0_linear" x1="5.11078" y1="4.7643" x2="31.414" y2="30.701" gradientUnits="userSpaceOnUse">
<stop stop-color="#387EB8"/>
<stop offset="1" stop-color="#366994"/>
</linearGradient>
<linearGradient id="paint1_linear" x1="21.1914" y1="21.487" x2="49.4329" y2="48.0778" gradientUnits="userSpaceOnUse">
<stop stop-color="#FFE052"/>
<stop offset="1" stop-color="#FFC331"/>
</linearGradient>
</defs>
</svg>
