<svg width="70" height="53" viewBox="0 0 70 53" fill="none" xmlns="http://www.w3.org/2000/svg">
<g clip-path="url(#clip0)">
<path d="M60.238 30.4481C57.7907 30.462 55.6716 31.0554 53.8942 31.9389C53.238 30.6277 52.5817 29.482 52.4725 28.6264C52.3494 27.6326 52.199 27.0252 52.3494 25.8383C52.4997 24.6512 53.1833 22.9674 53.1833 22.8294C53.1695 22.7051 53.0328 22.0978 51.6247 22.084C50.2166 22.0702 48.9997 22.3601 48.863 22.7327C48.7263 23.1054 48.4528 23.9611 48.2751 24.8445C48.029 26.1419 45.4587 30.7379 43.9958 33.1533C43.5173 32.2148 43.1071 31.3866 43.0249 30.724C42.902 29.7304 42.7515 29.123 42.902 27.9361C43.0524 26.749 43.736 25.0653 43.736 24.9273C43.7224 24.8031 43.5856 24.1958 42.1776 24.182C40.7692 24.1682 39.5526 24.458 39.4158 24.8307C39.2791 25.2033 39.1287 26.0866 38.828 26.9424C38.5407 27.7981 35.1227 35.4721 34.2341 37.4734C33.7829 38.4947 33.3866 39.309 33.0993 39.8611C32.8122 40.4132 33.0856 39.9025 33.0583 39.9577C32.8122 40.427 32.6755 40.6892 32.6755 40.6892V40.7032C32.4841 41.0482 32.279 41.3793 32.1832 41.3793C32.1148 41.3793 31.9781 40.4546 32.2105 39.185C32.7164 36.521 33.9468 32.3667 33.9333 32.2149C33.9333 32.1459 34.1656 31.4142 33.1402 31.0417C32.1421 30.6691 31.7868 31.2902 31.7046 31.2902C31.6226 31.2902 31.5542 31.511 31.5542 31.511C31.5542 31.511 32.6617 26.8322 29.4351 26.8322C27.4117 26.8322 24.6226 29.0544 23.2417 31.0833C22.3667 31.5663 20.5074 32.5876 18.5386 33.6781C17.7867 34.0921 17.0074 34.5338 16.2691 34.9341L16.1188 34.7681C12.2087 30.5585 4.97626 27.5773 5.27704 21.9184C5.38642 19.8619 6.09736 14.4377 19.1678 7.86791C29.8729 2.4851 38.4451 3.96192 39.9352 7.24682C42.0544 11.9395 35.3552 20.6624 24.2264 21.9184C19.9881 22.4015 17.7595 20.7452 17.1991 20.1241C16.6112 19.4755 16.5291 19.4478 16.3104 19.5721C15.9549 19.7653 16.1737 20.345 16.3104 20.69C16.6385 21.5596 18.0057 23.1054 20.3299 23.8783C22.3669 24.5546 27.3436 24.9273 33.3592 22.5809C40.0994 19.9447 45.3631 12.6296 43.8182 6.51531C42.2459 0.29057 32.0194 -1.75214 22.3534 1.71218C16.5974 3.78249 10.363 7.01218 5.87861 11.2494C0.546575 16.2734 -0.301081 20.6624 0.0543877 22.4843C1.29866 28.9851 10.1716 33.2223 13.7263 36.3554C13.5485 36.4519 13.3845 36.5485 13.2341 36.6314C11.4567 37.5146 4.68915 41.0895 2.99384 44.8711C1.07978 49.1498 3.29462 52.2278 4.77118 52.6418C9.33759 53.9254 14.0134 51.6205 16.5427 47.8249C19.0582 44.0293 18.7575 39.102 17.5954 36.8523L17.5542 36.7695L18.9488 35.9413C19.8513 35.403 20.7399 34.9062 21.5191 34.4782C21.0817 35.6789 20.7671 37.1006 20.6032 39.1709C20.4118 41.6002 21.3962 44.7469 22.695 45.9891C23.2692 46.5272 23.9528 46.5412 24.3767 46.5412C25.8806 46.5412 26.5642 45.2851 27.3161 43.7808C28.2458 41.9451 29.0661 39.8196 29.0661 39.8196C29.0661 39.8196 28.0407 45.575 30.8434 45.575C31.8688 45.575 32.8942 44.2362 33.3591 43.5461V43.5599C33.3591 43.5599 33.3864 43.5185 33.4411 43.4219C33.4985 43.3363 33.5532 43.2489 33.6052 43.1598V43.1322C34.0153 42.4145 34.9313 40.7721 36.2985 38.053C38.0621 34.5473 39.7575 30.1583 39.7575 30.1583C39.7575 30.1583 39.9216 31.2348 40.4274 33.0015C40.7281 34.0506 41.3843 35.196 41.8902 36.314C41.48 36.8937 41.2339 37.2251 41.2339 37.2251L41.2476 37.2389C40.9196 37.6805 40.5503 38.1499 40.1677 38.6191C38.7731 40.3029 37.1052 42.2215 36.8864 42.7736C36.6266 43.4222 36.6813 43.9053 37.1872 44.2919C37.5563 44.5679 38.2126 44.623 38.9099 44.5679C40.1677 44.485 41.0427 44.1676 41.4802 43.9743C42.1638 43.7258 42.9431 43.3532 43.695 42.8011C45.0622 41.7799 45.8962 40.3307 45.8141 38.3984C45.7731 37.3356 45.4313 36.2867 45.0075 35.2929C45.1306 35.1135 45.2537 34.9339 45.3766 34.7408C47.5368 31.5524 49.2048 28.0468 49.2048 28.0468C49.2048 28.0468 49.3688 29.1234 49.8747 30.89C50.1343 31.7872 50.654 32.7673 51.1188 33.7334C49.0954 35.4035 47.8239 37.3358 47.3864 38.6055C46.5798 40.9519 47.2087 42.0147 48.3981 42.2631C48.9312 42.3735 49.697 42.1251 50.271 41.8766C50.982 41.642 51.8433 41.2416 52.6364 40.6482C54.0036 39.6269 55.3161 38.2053 55.2477 36.2868C55.2067 35.4035 54.9743 34.5339 54.6598 33.7058C56.3825 32.9881 58.6109 32.574 61.4411 32.9191C67.5251 33.6368 68.7282 37.4738 68.4959 39.0748C68.2635 40.676 66.992 41.5592 66.5681 41.8352C66.1442 42.0975 66.0075 42.1942 66.0485 42.3873C66.1032 42.6773 66.2946 42.6634 66.6638 42.6083C67.1696 42.5253 69.863 41.2971 69.9723 38.3436C70.1364 34.5475 66.5681 30.4068 60.238 30.4481V30.4481ZM13.3161 46.4171C11.3063 48.6392 8.47626 49.4812 7.27314 48.7635C5.97431 48.0043 6.48003 44.7332 8.95478 42.3731C10.4587 40.9377 12.4138 39.6127 13.6989 38.7984C13.986 38.6189 14.4235 38.3568 14.9431 38.0392C15.0251 37.9842 15.0798 37.9564 15.0798 37.9564C15.1755 37.9012 15.2849 37.8322 15.3942 37.7632C16.3102 41.1309 15.4352 44.0846 13.3161 46.4171V46.4171ZM28.0134 36.3278C27.3161 38.053 25.8395 42.4835 24.9509 42.2351C24.1851 42.028 23.7204 38.6741 24.8003 35.3616C25.3472 33.6915 26.5093 31.7041 27.1929 30.931C28.3005 29.6888 29.5035 29.2748 29.8044 29.7855C30.1599 30.4481 28.4509 35.2512 28.0134 36.3278ZM40.1403 42.1799C39.8395 42.3318 39.5661 42.4421 39.4431 42.3594C39.3474 42.3042 39.566 42.0972 39.566 42.0972C39.566 42.0972 41.0835 40.4547 41.6851 39.6956C42.0269 39.2541 42.4371 38.7434 42.8746 38.1636V38.3292C42.8747 40.3166 40.988 41.6416 40.1403 42.1799ZM49.4917 40.0267C49.273 39.8611 49.3005 39.3504 50.0386 37.7494C50.3259 37.1145 50.982 36.0517 52.1167 35.0442C52.2535 35.4583 52.3356 35.8584 52.3218 36.2312C52.3083 38.7155 50.5583 39.6403 49.4917 40.0267Z" fill="#CF649A"/>
</g>
<defs>
<clipPath id="clip0">
<rect width="70" height="53" fill="white"/>
</clipPath>
</defs>
</svg>
