<svg width="56" height="54" viewBox="0 0 56 54" fill="none" xmlns="http://www.w3.org/2000/svg">
<path fill-rule="evenodd" clip-rule="evenodd" d="M55.9999 10.6497C55.9999 10.6672 55.9998 10.6848 55.9995 10.7024H55.9999V11.6263C53.441 16.3585 41.8778 19.9302 28.0003 19.9302C14.1216 19.9302 2.55771 16.3579 0 11.6251V10.7024H0.00036046C0.000120248 10.6848 0 10.6672 0 10.6497C0 4.9708 12.536 0.367188 28 0.367188C43.4639 0.367188 55.9999 4.9708 55.9999 10.6497ZM0 13.7343V23.5423C2.55771 28.275 14.1216 31.8474 28.0003 31.8474C41.8778 31.8474 53.441 28.2756 55.9999 23.5434V13.7355C53.441 18.4677 41.8778 22.0394 28.0003 22.0394C14.1216 22.0394 2.55771 18.4671 0 13.7343ZM0 34.932V25.6515C2.55771 30.3843 14.1216 33.9566 28.0003 33.9566C41.8778 33.9566 53.441 30.3848 55.9999 25.6526V34.9331C53.441 39.6653 41.8778 43.2371 28.0003 43.2371C14.1216 43.2371 2.55771 39.6648 0 34.932ZM0 37.0412V43.1317V43.1844H0.000360786C0.0777146 48.839 12.5839 53.4142 28 53.4142C43.416 53.4142 55.9222 48.839 55.9995 43.1844H55.9999V43.1317V37.0424C53.441 41.7746 41.8778 45.3463 28.0003 45.3463C14.1216 45.3463 2.55771 41.774 0 37.0412Z" fill="#215DA4"/>
<path d="M18.451 14.9687C17.771 14.9687 17.111 14.8847 16.471 14.7167C15.831 14.5487 15.311 14.3247 14.911 14.0447L15.691 12.2927C16.067 12.5407 16.503 12.7407 16.999 12.8927C17.495 13.0447 17.983 13.1207 18.463 13.1207C19.375 13.1207 19.831 12.8927 19.831 12.4367C19.831 12.1967 19.699 12.0207 19.435 11.9087C19.179 11.7887 18.763 11.6647 18.187 11.5367C17.555 11.4007 17.027 11.2567 16.603 11.1047C16.179 10.9447 15.815 10.6927 15.511 10.3487C15.207 10.0047 15.055 9.54066 15.055 8.95666C15.055 8.44466 15.195 7.98466 15.475 7.57666C15.755 7.16066 16.171 6.83266 16.723 6.59266C17.283 6.35266 17.967 6.23266 18.775 6.23266C19.327 6.23266 19.871 6.29666 20.407 6.42466C20.943 6.54466 21.415 6.72466 21.823 6.96466L21.091 8.72866C20.291 8.29666 19.515 8.08066 18.763 8.08066C18.291 8.08066 17.947 8.15266 17.731 8.29666C17.515 8.43266 17.407 8.61266 17.407 8.83666C17.407 9.06066 17.535 9.22866 17.791 9.34066C18.047 9.45266 18.459 9.56866 19.027 9.68866C19.667 9.82466 20.195 9.97266 20.611 10.1327C21.035 10.2847 21.399 10.5327 21.703 10.8767C22.015 11.2127 22.171 11.6727 22.171 12.2567C22.171 12.7607 22.031 13.2167 21.751 13.6247C21.471 14.0327 21.051 14.3607 20.491 14.6087C19.931 14.8487 19.251 14.9687 18.451 14.9687ZM33.3245 15.7727C33.0445 16.1167 32.7005 16.3767 32.2925 16.5527C31.8925 16.7367 31.4525 16.8287 30.9725 16.8287C30.5085 16.8287 30.0885 16.7687 29.7125 16.6487C29.3365 16.5287 28.9565 16.3287 28.5725 16.0487C28.1965 15.7767 27.7725 15.3927 27.3005 14.8967C26.5725 14.7767 25.9245 14.5167 25.3565 14.1167C24.7885 13.7167 24.3445 13.2127 24.0245 12.6047C23.7125 11.9967 23.5565 11.3287 23.5565 10.6007C23.5565 9.76866 23.7565 9.02066 24.1565 8.35666C24.5645 7.69266 25.1205 7.17266 25.8245 6.79666C26.5365 6.42066 27.3365 6.23266 28.2245 6.23266C29.1125 6.23266 29.9085 6.42066 30.6125 6.79666C31.3245 7.17266 31.8805 7.69266 32.2805 8.35666C32.6885 9.02066 32.8925 9.76866 32.8925 10.6007C32.8925 11.5447 32.6325 12.3807 32.1125 13.1087C31.6005 13.8287 30.9085 14.3447 30.0365 14.6567C30.1965 14.8327 30.3525 14.9567 30.5045 15.0287C30.6645 15.1007 30.8365 15.1367 31.0205 15.1367C31.4925 15.1367 31.9165 14.9407 32.2925 14.5487L33.3245 15.7727ZM25.9565 10.6007C25.9565 11.0727 26.0565 11.4927 26.2565 11.8607C26.4565 12.2207 26.7285 12.5007 27.0725 12.7007C27.4165 12.9007 27.8005 13.0007 28.2245 13.0007C28.6485 13.0007 29.0325 12.9007 29.3765 12.7007C29.7205 12.5007 29.9925 12.2207 30.1925 11.8607C30.3925 11.4927 30.4925 11.0727 30.4925 10.6007C30.4925 10.1287 30.3925 9.71266 30.1925 9.35266C29.9925 8.98466 29.7205 8.70066 29.3765 8.50066C29.0325 8.30066 28.6485 8.20066 28.2245 8.20066C27.8005 8.20066 27.4165 8.30066 27.0725 8.50066C26.7285 8.70066 26.4565 8.98466 26.2565 9.35266C26.0565 9.71266 25.9565 10.1287 25.9565 10.6007ZM34.857 6.40066H37.233V12.9167H41.241V14.8007H34.857V6.40066Z" fill="white"/>
</svg>
