<svg width="66" height="66" viewBox="0 0 66 66" fill="none" xmlns="http://www.w3.org/2000/svg">
<path d="M8.25 13.75C8.25 10.725 10.725 8.25 13.75 8.25H52.25C55.275 8.25 57.75 10.725 57.75 13.75V52.25C57.75 55.275 55.275 57.75 52.25 57.75H13.75C10.725 57.75 8.25 55.275 8.25 52.25V13.75Z" fill="#1E88E5"/>
<path d="M13.75 16.775C13.75 15.125 15.125 13.75 16.775 13.75H27.225C28.875 13.75 30.25 15.125 30.25 16.775V46.475C30.25 48.125 28.875 49.5 27.225 49.5H16.775C15.125 49.5 13.75 48.125 13.75 46.475V16.775ZM35.75 31.35C35.75 33 37.125 34.375 38.775 34.375H49.225C50.875 34.375 52.25 33 52.25 31.35V16.775C52.25 15.125 50.875 13.75 49.225 13.75H38.775C37.125 13.75 35.75 15.125 35.75 16.775V31.35Z" fill="white"/>
</svg>
